<?xml version="1.0" encoding="utf-8"?>
<!-- Generator: Adobe Illustrator 24.0.1, SVG Export Plug-In . SVG Version: 6.00 Build 0)  -->
<svg version="1.1" id="Layer_1" xmlns="http://www.w3.org/2000/svg" xmlns:xlink="http://www.w3.org/1999/xlink" x="0px" y="0px"
	 viewBox="0 0 125.7 154.4" style="enable-background:new 0 0 125.7 154.4;" xml:space="preserve">
<style type="text/css">
	.st0{fill:#002A47;}
</style>
<title>FDF Skjold outline</title>
<path class="st0" d="M62.9,0c-12.3,0-23,8.3-26.2,20.1c-12.5,2-24.7,5.4-36.4,10.1C-0.9,53.1,2.7,76,10.9,97.4
	c-8,9.6-8.6,23.3-1.5,33.5c7.1,10.3,20.4,14.4,32.1,9.9c6.5,5.4,13.7,9.9,21.4,13.5c7.7-3.6,14.8-8.1,21.3-13.5
	c3.1,1.2,6.4,1.8,9.7,1.8c8.9,0,17.3-4.4,22.3-11.7c7.1-10.2,6.5-23.9-1.5-33.5c8.2-21.4,11.8-44.3,10.7-67.1
	c-11.7-4.7-23.9-8.1-36.4-10.1C85.9,8.3,75.2,0.1,62.9,0"/>
</svg>
