<svg xmlns="http://www.w3.org/2000/svg" xmlns:xlink="http://www.w3.org/1999/xlink" width="60.65mm" height="95.97mm" viewBox="0 0 171.92 272.05"><defs><style>.cls-1{fill:none;}.cls-2{clip-path:url(#clip-path);}.cls-3{clip-path:url(#clip-path-2);}.cls-4{fill:#fff;}.cls-5{fill:#002a47;}.cls-6{fill:#d71f26;}</style><clipPath id="clip-path"><rect class="cls-1" x="22.18" y="27.69" width="127.56" height="154.37"/></clipPath><clipPath id="clip-path-2"><rect class="cls-1" x="8.78" y="27.69" width="154.37" height="154.37"/></clipPath></defs><title>FDF Nivå logo 4</title><g id="Skjold"><g class="cls-2"><g class="cls-3"><path class="cls-4" d="M86,180.4a99.43,99.43,0,0,1-20.44-13l-.67-.55-.8.31a25.34,25.34,0,0,1-9.24,1.73A25.77,25.77,0,0,1,33.7,157.78a26.18,26.18,0,0,1,1.45-31.69l.56-.68-.31-.82A162.42,162.42,0,0,1,24.74,58.94,164.12,164.12,0,0,1,60,49.29l.94-.15.25-.93a25.7,25.7,0,0,1,49.65,0l.25.92.94.15A165,165,0,0,1,147.19,59a162.37,162.37,0,0,1-10.66,65.61l-.31.83.56.68a26.18,26.18,0,0,1,1.44,31.68,25.74,25.74,0,0,1-21.14,11.07,25.38,25.38,0,0,1-9.21-1.72l-.81-.31-.66.55A98.92,98.92,0,0,1,86,180.4"/><path class="cls-5" d="M86,30.68a24.39,24.39,0,0,1,23.4,18l.51,1.85,1.88.3a163.1,163.1,0,0,1,34,9.23,161,161,0,0,1-10.6,64l-.63,1.65,1.13,1.35A24.67,24.67,0,0,1,137,156.92a24.26,24.26,0,0,1-19.93,10.44,24,24,0,0,1-8.68-1.62l-1.61-.63-1.33,1.1A98,98,0,0,1,86,178.75a97.81,97.81,0,0,1-19.5-12.55l-1.34-1.1-1.61.63a23.9,23.9,0,0,1-8.7,1.63,24.24,24.24,0,0,1-19.92-10.44,24.66,24.66,0,0,1,1.36-29.86l1.13-1.36-.63-1.65A161,161,0,0,1,26.18,60a163.52,163.52,0,0,1,34-9.22l1.89-.29.51-1.86A24.38,24.38,0,0,1,86,30.68m0-3A27.31,27.31,0,0,0,59.75,47.81,166.16,166.16,0,0,0,23.3,57.91,164.58,164.58,0,0,0,34,125.12a27.72,27.72,0,0,0-1.53,33.52,27.18,27.18,0,0,0,32.12,9.88A100.33,100.33,0,0,0,86,182.05a100.13,100.13,0,0,0,21.35-13.53,26.77,26.77,0,0,0,9.74,1.82,27.15,27.15,0,0,0,22.35-11.7,27.72,27.72,0,0,0-1.51-33.51A164.73,164.73,0,0,0,148.62,58a165.74,165.74,0,0,0-36.38-10.11A27.31,27.31,0,0,0,86,27.69"/><path class="cls-5" d="M86.37,43.85l4.09-3.79c.4-.37.81-.23.92.3l1.09,5.49a.58.58,0,0,0,.61.45l5.52-.64c.54-.07.8.29.57.78l-2.32,5.1a.58.58,0,0,0,.24.72L101.93,55a.52.52,0,0,1,0,1l-4.84,2.75a.58.58,0,0,0-.24.72l2.32,5.09c.23.5,0,.86-.57.79l-5.52-.64a.56.56,0,0,0-.61.44l-1.09,5.5c-.11.53-.52.67-.92.3l-4.09-3.8a.58.58,0,0,0-.76,0l-4.08,3.8c-.4.37-.82.23-.92-.3l-1.1-5.5a.56.56,0,0,0-.61-.44l-5.52.64c-.54.07-.8-.29-.57-.79l2.32-5.09a.57.57,0,0,0-.24-.72L70.05,56a.52.52,0,0,1,0-1l4.84-2.75a.57.57,0,0,0,.24-.72l-2.32-5.1c-.23-.49,0-.85.57-.78l5.52.64a.58.58,0,0,0,.61-.45l1.1-5.49c.1-.53.52-.67.92-.3l4.08,3.79a.56.56,0,0,0,.76,0"/><path class="cls-4" d="M82.32,59.2a5.28,5.28,0,0,1,0-7.4,5.15,5.15,0,0,1,7.34,0,5.26,5.26,0,0,1,0,7.4,5.17,5.17,0,0,1-7.34,0"/><path class="cls-5" d="M45.75,135.65l-.59-5.58c-.06-.54.29-.79.78-.56l5,2.38a.55.55,0,0,0,.71-.23l2.77-4.86c.27-.48.71-.47,1,0l2.69,4.91a.56.56,0,0,0,.71.24l5.07-2.29c.5-.23.85,0,.78.58L64,135.81a.57.57,0,0,0,.43.62l5.44,1.15c.53.11.67.53.3.93l-3.8,4.09a.57.57,0,0,0,0,.76l3.73,4.16c.36.4.22.82-.31.92l-5.46,1.06a.58.58,0,0,0-.44.61l.59,5.57c.06.55-.3.8-.79.57l-5-2.38a.56.56,0,0,0-.72.23L55.15,159c-.27.47-.7.47-1,0L51.5,154a.58.58,0,0,0-.71-.24l-5.07,2.29c-.5.23-.85,0-.78-.58l.69-5.56a.59.59,0,0,0-.44-.62l-5.44-1.15c-.53-.11-.66-.53-.29-.93l3.8-4.09a.59.59,0,0,0,0-.76l-3.73-4.16c-.37-.41-.23-.82.31-.92l5.45-1.06a.58.58,0,0,0,.45-.61"/><path class="cls-4" d="M55.57,148.06a5.24,5.24,0,1,1,4.37-5.95,5.2,5.2,0,0,1-4.37,5.95"/><path class="cls-5" d="M126.62,136.26l5.46,1.06c.53.1.67.52.31.92l-3.73,4.16a.58.58,0,0,0,0,.76l3.8,4.09c.37.4.24.82-.29.93l-5.44,1.15a.57.57,0,0,0-.43.62l.69,5.56c.06.55-.29.81-.78.58l-5.07-2.29a.58.58,0,0,0-.72.24L117.74,159c-.26.48-.7.48-1,0L114,154.1a.55.55,0,0,0-.71-.23l-5,2.38c-.49.23-.84,0-.78-.56l.59-5.58a.58.58,0,0,0-.45-.61l-5.46-1.05c-.53-.11-.67-.53-.3-.93l3.73-4.16a.59.59,0,0,0,0-.76l-3.8-4.09c-.37-.4-.24-.82.29-.93l5.44-1.15a.58.58,0,0,0,.44-.62l-.69-5.56c-.07-.55.28-.81.77-.58L113.1,132a.56.56,0,0,0,.71-.24l2.68-4.91c.27-.48.7-.49,1,0l2.77,4.86a.56.56,0,0,0,.72.23l5-2.38c.49-.23.84,0,.79.56l-.6,5.58a.58.58,0,0,0,.45.61"/><path class="cls-4" d="M112,142.11a5.19,5.19,0,1,1,4.37,5.95,5.21,5.21,0,0,1-4.37-5.95"/><path class="cls-4" d="M85.91,57.72a154.67,154.67,0,0,0-51,8.56,151.89,151.89,0,0,0,11.52,58.08A88.92,88.92,0,0,0,86,168.67a88.91,88.91,0,0,0,39.46-44.28A152.08,152.08,0,0,0,137,66.32a154.57,154.57,0,0,0-51.07-8.6"/><path class="cls-4" d="M85.28,170a90.81,90.81,0,0,1-40.17-45.06A153.58,153.58,0,0,1,33.46,66.28V65.22l1-.35a157.46,157.46,0,0,1,103,0l1,.35v1.06A153.75,153.75,0,0,1,126.82,125,90.87,90.87,0,0,1,86.7,170l-.71.38Z"/><path class="cls-4" d="M85.91,57.72A154.57,154.57,0,0,1,137,66.32a152.08,152.08,0,0,1-11.53,58.07A88.91,88.91,0,0,1,86,168.67a88.92,88.92,0,0,1-39.52-44.31A151.88,151.88,0,0,1,35,66.29a154.42,154.42,0,0,1,51-8.57m0-3A157.67,157.67,0,0,0,34,63.46l-2,.69v2.14A155,155,0,0,0,43.74,125.5a92.35,92.35,0,0,0,40.83,45.8l1.42.77,1.41-.77a92.33,92.33,0,0,0,40.79-45.77,155.12,155.12,0,0,0,11.75-59.21V64.19l-2-.69a157.57,157.57,0,0,0-52-8.77"/><polygon class="cls-5" points="58.96 102.42 58.96 104.91 54.12 104.91 54.12 108.11 50.2 108.11 50.2 97.53 61.25 97.53 61.25 100.45 54.12 100.45 54.12 102.42 58.96 102.42"/><polygon class="cls-5" points="117.74 102.42 117.74 104.91 112.89 104.91 112.89 108.11 108.98 108.11 108.98 97.53 120.03 97.53 120.03 100.45 112.89 100.45 112.89 102.42 117.74 102.42"/><path class="cls-5" d="M84.5,97.53H79.12v10.58h5.39a14.72,14.72,0,0,0,5.36-.69,4.45,4.45,0,0,0,2.91-4.6c0-5.29-5.18-5.29-8.28-5.29m1,7.67H83v-4.76H85.5c2.15,0,3.29.82,3.29,2.38s-1.14,2.38-3.29,2.38"/><path class="cls-6" d="M78.11,57.92a154.51,154.51,0,0,0-43.17,8.36,151.65,151.65,0,0,0,2.65,28.26H78.11Z"/><path class="cls-6" d="M134.34,94.54A152.07,152.07,0,0,0,137,66.32a154.13,154.13,0,0,0-43.17-8.39V94.54Z"/><path class="cls-6" d="M41.74,111.17q2.05,6.66,4.73,13.19A89,89,0,0,0,78.11,163.8V111.17Z"/><path class="cls-6" d="M93.81,163.83a89,89,0,0,0,31.64-39.44q2.68-6.54,4.75-13.22H93.81Z"/></g></g></g><g id="Kredsnavn"><path class="cls-5" d="M60.47,235.9q-3.31-5.88-7.16-11.61a119.44,119.44,0,0,0-8.2-10.82V235.9H37.5V201.66h6.27q1.63,1.64,3.61,4t4,5.07q2,2.69,4.07,5.58c1.35,1.92,2.62,3.78,3.8,5.56V201.66h7.66V235.9Z"/><path class="cls-5" d="M82.4,202.4a4.06,4.06,0,0,1-1.3,3.19,4.7,4.7,0,0,1-6.18,0,4.53,4.53,0,0,1,0-6.37,4.7,4.7,0,0,1,6.18,0A4,4,0,0,1,82.4,202.4Zm-.69,33.5H74.35v-26h7.36Z"/><path class="cls-5" d="M94.94,235.9q-2.53-5-5.13-11.56t-4.94-14.43h7.81c.33,1.29.72,2.68,1.17,4.18s.9,3,1.39,4.54,1,3,1.43,4.47,1,2.77,1.42,4c.43-1.18.89-2.5,1.39-4s1-2.94,1.46-4.47.94-3,1.39-4.54.83-2.89,1.16-4.18h7.62q-2.34,7.8-4.93,14.43t-5.13,11.56Z"/><path class="cls-5" d="M123.85,209.22a17.18,17.18,0,0,1,5.44.74,8.44,8.44,0,0,1,3.48,2.12,7.9,7.9,0,0,1,1.85,3.36,16.73,16.73,0,0,1,.54,4.4v15.31c-1,.24-2.52.51-4.39.82a42.61,42.61,0,0,1-6.82.47,21.39,21.39,0,0,1-4.57-.45,9.87,9.87,0,0,1-3.53-1.45,6.62,6.62,0,0,1-2.27-2.65,9.05,9.05,0,0,1-.79-4,7.57,7.57,0,0,1,.91-3.85,7.1,7.1,0,0,1,2.44-2.52,11.17,11.17,0,0,1,3.51-1.36,19.73,19.73,0,0,1,4.1-.42,21.43,21.43,0,0,1,2.55.13,11.22,11.22,0,0,1,1.8.32v-.7a4.06,4.06,0,0,0-1.14-3c-.75-.76-2.07-1.13-3.95-1.13a25.18,25.18,0,0,0-3.7.27,15.87,15.87,0,0,0-3.17.76l-.93-5.93c.42-.13,1-.27,1.6-.42s1.34-.27,2.1-.39,1.56-.21,2.4-.3S123,209.22,123.85,209.22Zm6.67-7.86a6,6,0,0,1-.47,2.45,5,5,0,0,1-1.28,1.78,5.69,5.69,0,0,1-1.88,1.09,7,7,0,0,1-2.25.37,6.55,6.55,0,0,1-2.17-.37,5.65,5.65,0,0,1-1.85-1.09,5,5,0,0,1-1.29-1.78,6.59,6.59,0,0,1,0-4.89,5,5,0,0,1,1.29-1.78,5.65,5.65,0,0,1,1.85-1.09,6.55,6.55,0,0,1,2.17-.37,7,7,0,0,1,2.25.37,5.69,5.69,0,0,1,1.88,1.09,5,5,0,0,1,1.28,1.78A6,6,0,0,1,130.52,201.36Zm-6.08,29.4c.73,0,1.42,0,2.08,0a12.86,12.86,0,0,0,1.58-.15V225c-.3-.07-.74-.13-1.33-.2s-1.14-.1-1.63-.1a13.44,13.44,0,0,0-2,.13,5,5,0,0,0-1.6.46,2.87,2.87,0,0,0-1.09.94,2.66,2.66,0,0,0-.39,1.49,2.5,2.5,0,0,0,1.16,2.39A6.32,6.32,0,0,0,124.44,230.76Zm2.47-29.4a2.14,2.14,0,0,0-.69-1.72,2.35,2.35,0,0,0-1.58-.6,2.28,2.28,0,0,0-1.53.6,2.5,2.5,0,0,0,0,3.45,2.28,2.28,0,0,0,1.53.6,2.35,2.35,0,0,0,1.58-.6A2.15,2.15,0,0,0,126.91,201.36Z"/></g></svg>